<svg style="position:absolute;width:0;height:0" xmlns="http://www.w3.org/2000/svg" overflow="hidden"><defs><symbol id="envelope-o" viewBox="0 0 28 28"><path d="M26 23.5v-12a8.408 8.408 0 01-1.078 1.031c-2.234 1.719-4.484 3.469-6.656 5.281-1.172.984-2.625 2.188-4.25 2.188h-.031c-1.625 0-3.078-1.203-4.25-2.188-2.172-1.813-4.422-3.563-6.656-5.281A8.411 8.411 0 012.001 11.5v12c0 .266.234.5.5.5h23c.266 0 .5-.234.5-.5zm0-16.422C26 6.687 26.094 6 25.5 6h-23c-.266 0-.5.234-.5.5 0 1.781.891 3.328 2.297 4.438a980.43 980.43 0 016.266 4.953c.828.672 2.328 2.109 3.422 2.109h.031c1.094 0 2.594-1.437 3.422-2.109a946.207 946.207 0 016.266-4.953c1.016-.797 2.297-2.531 2.297-3.859zm2-.578v17c0 1.375-1.125 2.5-2.5 2.5h-23A2.507 2.507 0 010 23.5v-17C0 5.125 1.125 4 2.5 4h23C26.875 4 28 5.125 28 6.5z"/></symbol><symbol id="tag" viewBox="0 0 24 28"><path d="M7 7c0-1.109-.891-2-2-2s-2 .891-2 2 .891 2 2 2 2-.891 2-2zm16.672 9c0 .531-.219 1.047-.578 1.406l-7.672 7.688c-.375.359-.891.578-1.422.578s-1.047-.219-1.406-.578L1.422 13.906C.625 13.125 0 11.609 0 10.5V4c0-1.094.906-2 2-2h6.5c1.109 0 2.625.625 3.422 1.422l11.172 11.156c.359.375.578.891.578 1.422z"/></symbol><symbol id="angle-up" viewBox="0 0 320 512"><path d="M168.5 164.2l148 146.8c4.7 4.7 4.7 12.3 0 17l-19.8 19.8c-4.7 4.7-12.3 4.7-17 0L160 229.3 40.3 347.8c-4.7 4.7-12.3 4.7-17 0L3.5 328c-4.7-4.7-4.7-12.3 0-17l148-146.8c4.7-4.7 12.3-4.7 17 0z"/></symbol><symbol id="phone" viewBox="0 0 22 28"><path d="M22 19.375c0 .562-.25 1.656-.484 2.172-.328.766-1.203 1.266-1.906 1.656-.922.5-1.859.797-2.906.797-1.453 0-2.766-.594-4.094-1.078a14.627 14.627 0 01-2.734-1.297c-2.656-1.641-5.859-4.844-7.5-7.5a14.627 14.627 0 01-1.297-2.734C.595 10.063.001 8.75.001 7.297c0-1.047.297-1.984.797-2.906.391-.703.891-1.578 1.656-1.906.516-.234 1.609-.484 2.172-.484.109 0 .219 0 .328.047.328.109.672.875.828 1.188.5.891.984 1.797 1.5 2.672.25.406.719.906.719 1.391 0 .953-2.828 2.344-2.828 3.187 0 .422.391.969.609 1.344 1.578 2.844 3.547 4.813 6.391 6.391.375.219.922.609 1.344.609.844 0 2.234-2.828 3.187-2.828.484 0 .984.469 1.391.719.875.516 1.781 1 2.672 1.5.313.156 1.078.5 1.188.828.047.109.047.219.047.328z"/></symbol><symbol id="twitter" viewBox="0 0 26 28"><path d="M25.312 6.375a10.85 10.85 0 01-2.531 2.609c.016.219.016.438.016.656 0 6.672-5.078 14.359-14.359 14.359-2.859 0-5.516-.828-7.75-2.266.406.047.797.063 1.219.063 2.359 0 4.531-.797 6.266-2.156a5.056 5.056 0 01-4.719-3.5c.313.047.625.078.953.078.453 0 .906-.063 1.328-.172a5.048 5.048 0 01-4.047-4.953v-.063a5.093 5.093 0 002.281.641 5.044 5.044 0 01-2.25-4.203c0-.938.25-1.797.688-2.547a14.344 14.344 0 0010.406 5.281 5.708 5.708 0 01-.125-1.156 5.045 5.045 0 015.047-5.047 5.03 5.03 0 013.687 1.594 9.943 9.943 0 003.203-1.219 5.032 5.032 0 01-2.219 2.781c1.016-.109 2-.391 2.906-.781z"/></symbol><symbol id="facebook" viewBox="0 0 16 28"><path d="M14.984.187v4.125h-2.453c-1.922 0-2.281.922-2.281 2.25v2.953h4.578l-.609 4.625H10.25v11.859H5.469V14.14H1.485V9.515h3.984V6.109C5.469 2.156 7.891 0 11.422 0c1.687 0 3.141.125 3.563.187z"/></symbol><symbol id="linkedin" viewBox="0 0 24 28"><path d="M5.453 9.766V25.25H.297V9.766h5.156zm.328-4.782c.016 1.484-1.109 2.672-2.906 2.672h-.031C1.11 7.656 0 6.468 0 4.984c0-1.516 1.156-2.672 2.906-2.672 1.766 0 2.859 1.156 2.875 2.672zM24 16.375v8.875h-5.141v-8.281c0-2.078-.75-3.5-2.609-3.5-1.422 0-2.266.953-2.641 1.875-.125.344-.172.797-.172 1.266v8.641H8.296c.063-14.031 0-15.484 0-15.484h5.141v2.25h-.031c.672-1.062 1.891-2.609 4.672-2.609 3.391 0 5.922 2.219 5.922 6.969z"/></symbol><symbol id="mobile" viewBox="0 0 12 28"><path d="M7.25 22c0-.688-.562-1.25-1.25-1.25s-1.25.562-1.25 1.25.562 1.25 1.25 1.25 1.25-.562 1.25-1.25zm3.25-2.5v-11c0-.266-.234-.5-.5-.5H2c-.266 0-.5.234-.5.5v11c0 .266.234.5.5.5h8c.266 0 .5-.234.5-.5zm-3-13.25A.246.246 0 007.25 6h-2.5c-.141 0-.25.109-.25.25s.109.25.25.25h2.5c.141 0 .25-.109.25-.25zM12 6v16c0 1.094-.906 2-2 2H2c-1.094 0-2-.906-2-2V6c0-1.094.906-2 2-2h8c1.094 0 2 .906 2 2z"/></symbol><symbol id="quote-left" viewBox="0 0 26 28"><path d="M12 15v6c0 1.656-1.344 3-3 3H3c-1.656 0-3-1.344-3-3V10c0-4.406 3.594-8 8-8h1c.547 0 1 .453 1 1v2c0 .547-.453 1-1 1H8c-2.203 0-4 1.797-4 4v.5A1.5 1.5 0 005.5 12H9c1.656 0 3 1.344 3 3zm14 0v6c0 1.656-1.344 3-3 3h-6c-1.656 0-3-1.344-3-3V10c0-4.406 3.594-8 8-8h1c.547 0 1 .453 1 1v2c0 .547-.453 1-1 1h-1c-2.203 0-4 1.797-4 4v.5a1.5 1.5 0 001.5 1.5H23c1.656 0 3 1.344 3 3z"/></symbol><symbol id="quote-right" viewBox="0 0 26 28"><path d="M12 5v11c0 4.406-3.594 8-8 8H3c-.547 0-1-.453-1-1v-2c0-.547.453-1 1-1h1c2.203 0 4-1.797 4-4v-.5A1.5 1.5 0 006.5 14H3c-1.656 0-3-1.344-3-3V5c0-1.656 1.344-3 3-3h6c1.656 0 3 1.344 3 3zm14 0v11c0 4.406-3.594 8-8 8h-1c-.547 0-1-.453-1-1v-2c0-.547.453-1 1-1h1c2.203 0 4-1.797 4-4v-.5a1.5 1.5 0 00-1.5-1.5H17c-1.656 0-3-1.344-3-3V5c0-1.656 1.344-3 3-3h6c1.656 0 3 1.344 3 3z"/></symbol><symbol id="copyright" viewBox="0 0 24 28"><path d="M17.969 16.781v1.703c0 2.203-3.516 3.016-5.719 3.016-4.281 0-7.5-3.266-7.5-7.578 0-4.234 3.187-7.422 7.422-7.422 1.547 0 5.594.547 5.594 3.031v1.703c0 .141-.109.25-.25.25h-1.844a.246.246 0 01-.25-.25V10.14c0-.984-1.891-1.437-3.172-1.437-2.922 0-4.953 2.109-4.953 5.141 0 3.141 2.125 5.437 5.078 5.437 1.125 0 3.25-.422 3.25-1.406v-1.094c0-.141.109-.25.234-.25h1.859c.125 0 .25.109.25.25zM12 4C6.484 4 2 8.484 2 14s4.484 10 10 10 10-4.484 10-10S17.516 4 12 4zm12 10c0 6.625-5.375 12-12 12S0 20.625 0 14 5.375 2 12 2s12 5.375 12 12z"/></symbol><symbol id="at" viewBox="0 0 24 28"><path d="M15.188 12.109c0-2.25-1.172-3.594-3.141-3.594-2.594 0-5.375 2.578-5.375 6.75 0 2.328 1.156 3.656 3.187 3.656 3.141 0 5.328-3.594 5.328-6.813zM24 14c0 4.859-3.469 6.687-6.438 6.781-.203 0-.281.016-.5.016-.969 0-1.734-.281-2.219-.828-.297-.344-.469-.781-.516-1.297-.969 1.219-2.656 2.406-4.766 2.406-3.359 0-5.281-2.078-5.281-5.703 0-4.984 3.453-9.031 7.672-9.031 1.828 0 3.297.781 4.078 2.109l.031-.297.172-.875c.016-.125.125-.281.234-.281h1.844c.078 0 .156.109.203.172.047.047.063.172.047.25l-1.875 9.594a3.458 3.458 0 00-.078.75c0 .844.25 1.016.891 1.016 1.062-.031 4.5-.469 4.5-4.781 0-6.078-3.922-10-10-10-5.516 0-10 4.484-10 10s4.484 10 10 10a10.04 10.04 0 006.328-2.25.483.483 0 01.703.063l.641.766a.531.531 0 01.109.375.547.547 0 01-.187.344 12.063 12.063 0 01-7.594 2.703c-6.609 0-12-5.391-12-12s5.391-12 12-12c7.172 0 12 4.828 12 12z"/></symbol><symbol id="search" viewBox="0 0 26 28"><path d="M18 13c0-3.859-3.141-7-7-7s-7 3.141-7 7 3.141 7 7 7 7-3.141 7-7zm8 13c0 1.094-.906 2-2 2a1.96 1.96 0 01-1.406-.594l-5.359-5.344a10.971 10.971 0 01-6.234 1.937c-6.078 0-11-4.922-11-11s4.922-11 11-11 11 4.922 11 11c0 2.219-.672 4.406-1.937 6.234l5.359 5.359c.359.359.578.875.578 1.406z"/></symbol><symbol id="book" viewBox="0 0 448 512"><path d="M128 152v-32c0-4.4 3.6-8 8-8h208c4.4 0 8 3.6 8 8v32c0 4.4-3.6 8-8 8H136c-4.4 0-8-3.6-8-8zm8 88h208c4.4 0 8-3.6 8-8v-32c0-4.4-3.6-8-8-8H136c-4.4 0-8 3.6-8 8v32c0 4.4 3.6 8 8 8zm299.1 159.7c-4.2 13-4.2 51.6 0 64.6 7.3 1.4 12.9 7.9 12.9 15.7v16c0 8.8-7.2 16-16 16H80c-44.2 0-80-35.8-80-80V80C0 35.8 35.8 0 80 0h352c8.8 0 16 7.2 16 16v368c0 7.8-5.5 14.2-12.9 15.7zm-41.1.3H80c-17.6 0-32 14.4-32 32 0 17.7 14.3 32 32 32h314c-2.7-17.3-2.7-46.7 0-64zm6-352H80c-17.7 0-32 14.3-32 32v278.7c9.8-4.3 20.6-6.7 32-6.7h320V48z"/></symbol><symbol id="close" viewBox="0 0 22 28"><path d="M20.281 20.656c0 .391-.156.781-.438 1.062l-2.125 2.125c-.281.281-.672.438-1.062.438s-.781-.156-1.062-.438L11 19.249l-4.594 4.594c-.281.281-.672.438-1.062.438s-.781-.156-1.062-.438l-2.125-2.125c-.281-.281-.438-.672-.438-1.062s.156-.781.438-1.062L6.751 15l-4.594-4.594c-.281-.281-.438-.672-.438-1.062s.156-.781.438-1.062l2.125-2.125c.281-.281.672-.438 1.062-.438s.781.156 1.062.438L11 10.751l4.594-4.594c.281-.281.672-.438 1.062-.438s.781.156 1.062.438l2.125 2.125c.281.281.438.672.438 1.062s-.156.781-.438 1.062L15.249 15l4.594 4.594c.281.281.438.672.438 1.062z"/></symbol><symbol id="search-plus" viewBox="0 0 26 28"><path d="M16 12.5v1c0 .266-.234.5-.5.5H12v3.5c0 .266-.234.5-.5.5h-1a.514.514 0 01-.5-.5V14H6.5a.514.514 0 01-.5-.5v-1c0-.266.234-.5.5-.5H10V8.5c0-.266.234-.5.5-.5h1c.266 0 .5.234.5.5V12h3.5c.266 0 .5.234.5.5zm2 .5c0-3.859-3.141-7-7-7s-7 3.141-7 7 3.141 7 7 7 7-3.141 7-7zm8 13c0 1.109-.891 2-2 2a1.96 1.96 0 01-1.406-.594l-5.359-5.344a10.971 10.971 0 01-6.234 1.937c-6.078 0-11-4.922-11-11s4.922-11 11-11 11 4.922 11 11c0 2.219-.672 4.406-1.937 6.234l5.359 5.359c.359.359.578.875.578 1.406z"/></symbol><symbol id="search-minus" viewBox="0 0 26 28"><path d="M16 12.5v1c0 .266-.234.5-.5.5h-9a.514.514 0 01-.5-.5v-1c0-.266.234-.5.5-.5h9c.266 0 .5.234.5.5zm2 .5c0-3.859-3.141-7-7-7s-7 3.141-7 7 3.141 7 7 7 7-3.141 7-7zm8 13c0 1.109-.891 2-2 2a1.96 1.96 0 01-1.406-.594l-5.359-5.344a10.971 10.971 0 01-6.234 1.937c-6.078 0-11-4.922-11-11s4.922-11 11-11 11 4.922 11 11c0 2.219-.672 4.406-1.937 6.234l5.359 5.359c.359.359.578.875.578 1.406z"/></symbol><symbol id="list" viewBox="0 0 512 512"><path d="M500 124H140c-6.627 0-12-5.373-12-12V80c0-6.627 5.373-12 12-12h360c6.627 0 12 5.373 12 12v32c0 6.627-5.373 12-12 12zm12 148v-32c0-6.627-5.373-12-12-12H140c-6.627 0-12 5.373-12 12v32c0 6.627 5.373 12 12 12h360c6.627 0 12-5.373 12-12zm0 160v-32c0-6.627-5.373-12-12-12H140c-6.627 0-12 5.373-12 12v32c0 6.627 5.373 12 12 12h360c6.627 0 12-5.373 12-12zM92 128V64c0-6.627-5.373-12-12-12H16C9.373 52 4 57.373 4 64v64c0 6.627 5.373 12 12 12h64c6.627 0 12-5.373 12-12zm0 160v-64c0-6.627-5.373-12-12-12H16c-6.627 0-12 5.373-12 12v64c0 6.627 5.373 12 12 12h64c6.627 0 12-5.373 12-12zm0 160v-64c0-6.627-5.373-12-12-12H16c-6.627 0-12 5.373-12 12v64c0 6.627 5.373 12 12 12h64c6.627 0 12-5.373 12-12z"/></symbol><symbol id="chevron-left" viewBox="0 0 256 512"><path d="M231.293 473.899l19.799-19.799c4.686-4.686 4.686-12.284 0-16.971L70.393 256 251.092 74.87c4.686-4.686 4.686-12.284 0-16.971L231.293 38.1c-4.686-4.686-12.284-4.686-16.971 0L4.908 247.515c-4.686 4.686-4.686 12.284 0 16.971L214.322 473.9c4.687 4.686 12.285 4.686 16.971-.001z"/></symbol><symbol id="chevron-right" viewBox="0 0 256 512"><path d="M24.707 38.101L4.908 57.899c-4.686 4.686-4.686 12.284 0 16.971L185.607 256 4.908 437.13c-4.686 4.686-4.686 12.284 0 16.971L24.707 473.9c4.686 4.686 12.284 4.686 16.971 0l209.414-209.414c4.686-4.686 4.686-12.284 0-16.971L41.678 38.101c-4.687-4.687-12.285-4.687-16.971 0z"/></symbol><symbol id="bars" viewBox="0 0 448 512"><path d="M436 124H12c-6.627 0-12-5.373-12-12V80c0-6.627 5.373-12 12-12h424c6.627 0 12 5.373 12 12v32c0 6.627-5.373 12-12 12zm0 160H12c-6.627 0-12-5.373-12-12v-32c0-6.627 5.373-12 12-12h424c6.627 0 12 5.373 12 12v32c0 6.627-5.373 12-12 12zm0 160H12c-6.627 0-12-5.373-12-12v-32c0-6.627 5.373-12 12-12h424c6.627 0 12 5.373 12 12v32c0 6.627-5.373 12-12 12z"/></symbol><symbol id="th" viewBox="0 0 512 512"><path d="M0 80v352c0 26.51 21.49 48 48 48h416c26.51 0 48-21.49 48-48V80c0-26.51-21.49-48-48-48H48C21.49 32 0 53.49 0 80zm472 224H354.667v-96H472v96zm-157.333 0H197.333v-96h117.333v96zm0 40v96H197.333v-96h117.334zM40 208h117.333v96H40v-96zm157.333-40V72h117.333v96H197.333zm-40-96v96H40V84c0-6.627 5.373-12 12-12h105.333zM40 344h117.333v96H52c-6.627 0-12-5.373-12-12v-84zm314.667 96v-96H472v96H354.667zM472 168H354.667V72H472v96z"/></symbol><symbol id="th-large" viewBox="0 0 512 512"><path d="M0 80v352c0 26.51 21.49 48 48 48h416c26.51 0 48-21.49 48-48V80c0-26.51-21.49-48-48-48H48C21.49 32 0 53.49 0 80zm232 0v152H48V86a6 6 0 016-6h178zM48 280h184v152H54a6 6 0 01-6-6V280zm232 152V280h184v146a6 6 0 01-6 6H280zm184-200H280V80h178a6 6 0 016 6v146z"/></symbol><symbol id="comment" viewBox="0 0 512 512"><path d="M256 32C114.6 32 0 125.1 0 240c0 47.6 19.9 91.2 52.9 126.3C38 405.7 7 439.1 6.5 439.5c-6.6 7-8.4 17.2-4.6 26S14.4 480 24 480c61.5 0 110-25.7 139.1-46.3C192 442.8 223.2 448 256 448c141.4 0 256-93.1 256-208S397.4 32 256 32zm0 368c-26.7 0-53.1-4.1-78.4-12.1l-22.7-7.2-19.5 13.8c-14.3 10.1-33.9 21.4-57.5 29 7.3-12.1 14.4-25.7 19.9-40.2l10.6-28.1-20.6-21.8C69.7 314.1 48 282.2 48 240c0-88.2 93.3-160 208-160s208 71.8 208 160-93.3 160-208 160z"/></symbol></defs></svg>